# xmcd
#
# Track frame offsets:
#	150
#	15900
#	31610
#	47924
#	64151
#	79000
#	106686
#	123026
#	142020
#	159663
#	177084
#	191862
#
# Disc length: 2782 seconds
# Revision: 0
# Processed by: cddbd v1.5.2PL0 Copyright (c) Steve Scherf et al.
# Submitted via: dBpowerAMP V12.0
#
DISCID=900adc0c
DTITLE=R. Kelly - Write Me Back
DYEAR=2012
DGENRE=R&B
TTITLE0=Love Is
TTITLE1=Feelin' Single
TTITLE2=Lady Sunday
TTITLE3=When A Man Lies
TTITLE4=Clipped Wings
TTITLE5=Believe That It's So
TTITLE6=Fool For You
TTITLE7=All Rounds On Me
TTITLE8=Believe In Me
TTITLE9=Green Light
TTITLE10=Party Jumpin'
TTITLE11=Share My Love
EXTD=
EXTT0=
EXTT1=
EXTT2=
EXTT3=
EXTT4=
EXTT5=
EXTT6=
EXTT7=
EXTT8=
EXTT9=
EXTT10=
EXTT11=
PLAYORDER=
